<?xml version="1.0" encoding="utf-8"?>
<!-- Generator: Adobe Illustrator 26.0.1, SVG Export Plug-In . SVG Version: 6.00 Build 0)  -->
<svg version="1.1" id="Layer_1" xmlns="http://www.w3.org/2000/svg" xmlns:xlink="http://www.w3.org/1999/xlink" x="0px" y="0px"
	 viewBox="0 0 1831.9 761.5" style="enable-background:new 0 0 1831.9 761.5;" xml:space="preserve">
<style type="text/css">
	.st0{fill:#EEEEEE;}
	.st1{fill:url(#SVGID_1_);}
	.st2{fill:#00A651;}
	.st3{clip-path:url(#SVGID_00000013190144411036058660000012976687772018520196_);}
	.st4{opacity:0.5;fill:url(#SVGID_00000022559932565589022880000006877096525416202389_);}
	.st5{fill:none;}
	.st6{fill:#D4FFE7;}
	.st7{fill:#00BF56;}
	.st8{opacity:0.3;fill:url(#SVGID_00000061444151893789539150000000123571058640994723_);}
	.st9{fill:#4DFF9D;}
	.st10{opacity:0.3;fill:url(#SVGID_00000085226234459100944710000010159626366593194423_);}
	.st11{fill:#002A40;}
	.st12{fill:url(#SVGID_00000107546340452443644330000003415551503896617388_);}
	.st13{fill:url(#SVGID_00000104670854309620569230000005385185993575037056_);}
	.st14{fill:url(#SVGID_00000103259782475758970440000015527210628731661961_);}
	.st15{fill:url(#SVGID_00000002380001964512503330000012146893508878574464_);}
	.st16{fill:url(#SVGID_00000057841324563947807300000001067698103421602434_);}
	.st17{fill:url(#SVGID_00000111157359314011039660000007988197501857754775_);}
	.st18{fill:url(#SVGID_00000051359058660092612950000015359534028696168120_);}
	.st19{fill:#007C38;}
	.st20{opacity:0.4;fill:url(#SVGID_00000141454624011751597120000009119198776222881982_);}
	.st21{opacity:0.5;fill:url(#SVGID_00000031888811761367043040000013509914245379036048_);}
	.st22{clip-path:url(#SVGID_00000087386718546755655220000000203014222946360204_);}
	.st23{opacity:0.5;fill:url(#SVGID_00000169551796459322000340000003328327878612231328_);}
	.st24{opacity:0.3;fill:url(#SVGID_00000141415196188632340110000013285588888463578008_);}
	.st25{opacity:0.3;fill:url(#SVGID_00000078730403427111796810000006791820313037160833_);}
	.st26{fill:url(#SVGID_00000169518251713311421640000009826660810716444600_);}
	.st27{fill:url(#SVGID_00000074408330413506785550000008770980258608541887_);}
	.st28{fill:url(#SVGID_00000005227762745240884090000005812219928034151076_);}
	.st29{fill:url(#SVGID_00000110447122792668232400000012756506035145966214_);}
	.st30{fill:url(#SVGID_00000007418124836125129330000003937512428737451149_);}
	.st31{fill:url(#SVGID_00000049914201359618861550000011139613121193746576_);}
	.st32{fill:url(#SVGID_00000104680157452480805540000016874407245022416283_);}
	.st33{opacity:0.4;fill:url(#SVGID_00000099663074626541946560000009203422012851166638_);}
	.st34{opacity:0.5;fill:url(#SVGID_00000060719222887611812800000003415232627103367868_);}
</style>
<path class="st0" d="M1831.9,242.8c-25.1-4.7-50.1-9.1-74.8-13.2l34.4,1.7C1804.9,235,1818.4,238.9,1831.9,242.8z"/>
<path class="st0" d="M1831.9,283.1v172.2c-134.9-138.5-484.3-182-484.3-182C1522.2,227.6,1753.1,267.1,1831.9,283.1z"/>
<linearGradient id="SVGID_1_" gradientUnits="userSpaceOnUse" x1="1549.8848" y1="511.1846" x2="1702.3453" y2="267.2477" gradientTransform="matrix(1 0 0 -1 0 764)">
	<stop  offset="0" style="stop-color:#EC1C24"/>
	<stop  offset="0.9995" style="stop-color:#FFFFFF"/>
</linearGradient>
<path class="st1" d="M1831.9,359.9c-194.3-114.1-484.3-86.6-484.3-86.6s349.4,43.4,484.3,182L1831.9,359.9L1831.9,359.9z"/>
<rect y="229.6" class="st2" width="1831.9" height="532"/>
<g>
	<g>
		<defs>
			
				<rect id="SVGID_00000136377315663046659910000000853586481456048562_" x="1327.5" y="229.6" transform="matrix(-1 -1.224647e-16 1.224647e-16 -1 3159.3516 913.3177)" width="504.4" height="454.1"/>
		</defs>
		<clipPath id="SVGID_00000134933574401074788110000000802441413042143147_">
			<use xlink:href="#SVGID_00000136377315663046659910000000853586481456048562_"  style="overflow:visible;"/>
		</clipPath>
		<g style="clip-path:url(#SVGID_00000134933574401074788110000000802441413042143147_);">
			<g>
				
					<linearGradient id="SVGID_00000119808871147090991620000002142694820422413703_" gradientUnits="userSpaceOnUse" x1="417.9758" y1="62.8449" x2="523.1517" y2="138.2114" gradientTransform="matrix(-1 0 0 -1 2164.6599 420.3809)">
					<stop  offset="0.3731" style="stop-color:#001E30"/>
					<stop  offset="0.3777" style="stop-color:#092637"/>
					<stop  offset="0.4029" style="stop-color:#374F5D"/>
					<stop  offset="0.4314" style="stop-color:#627580"/>
					<stop  offset="0.462" style="stop-color:#88969E"/>
					<stop  offset="0.4953" style="stop-color:#A8B3B9"/>
					<stop  offset="0.5321" style="stop-color:#C4CBCF"/>
					<stop  offset="0.5737" style="stop-color:#DADEE1"/>
					<stop  offset="0.6222" style="stop-color:#EBEDEE"/>
					<stop  offset="0.6822" style="stop-color:#F6F7F8"/>
					<stop  offset="0.7664" style="stop-color:#FDFDFD"/>
					<stop  offset="1" style="stop-color:#FFFFFF"/>
				</linearGradient>
				<polygon style="opacity:0.5;fill:url(#SVGID_00000119808871147090991620000002142694820422413703_);" points="1629.1,295.1 
					1638.4,307.1 1679.8,360.6 1730.6,295.1 				"/>
				<polygon class="st2" points="1481.9,346.7 1562,346.7 1562,346.7 1522,295.1 1521.9,295.1 1481.9,346.7 				"/>
				<polygon class="st5" points="1832.2,426.1 1933.7,426.1 1933.7,426.1 1933.7,426.1 1933.7,426.1 1832.2,426.1 1832.2,426.1 
					1781.4,360.6 1781.4,360.6 1832.2,426.1 				"/>
				<polygon class="st5" points="1883,491.7 1883,491.7 1933.7,557.2 1933.7,557.2 1832.2,557.2 1832.2,557.2 1832.2,557.2 
					1730.6,557.2 1730.6,557.2 1730.6,557.2 1832.2,557.2 1832.2,557.2 1832.2,557.2 1933.7,557.2 1933.7,557.2 				"/>
				<polygon class="st5" points="1883,360.6 1933.7,426.1 1933.7,426.1 				"/>
				<polygon class="st5" points="1614.9,313.4 1578.3,360.6 1578.3,360.6 1578.3,360.6 				"/>
				<polygon class="st5" points="1679.9,229.5 1679.9,229.5 1679.9,229.5 				"/>
				<polygon class="st5" points="1629.1,295.1 1638.4,307.1 1629.1,295.1 				"/>
				<polygon class="st6" points="1781.4,360.6 1730.6,295.1 1730.6,295.1 1679.8,360.6 1679.8,360.6 1679.8,360.6 1679.8,360.6 
					1781.4,360.6 				"/>
				<polygon class="st7" points="1679.8,229.5 1679.8,229.5 1679.8,229.5 1578.3,229.5 1629.1,295.1 1629.1,295.1 				"/>
				<polygon class="st6" points="1883,491.7 1883,491.7 1832.2,426.1 1832.2,426.1 1781.4,491.7 1781.4,491.7 1781.4,491.7 
					1883,491.7 				"/>
				
					<linearGradient id="SVGID_00000100349930927348623760000009263986905024896957_" gradientUnits="userSpaceOnUse" x1="506.505" y1="3181.2168" x2="564.6639" y2="3239.3757" gradientTransform="matrix(-1 0 0 1 2164.6599 -2988.1433)">
					<stop  offset="0" style="stop-color:#FFFFFF"/>
					<stop  offset="1" style="stop-color:#161614"/>
				</linearGradient>
				<polygon style="opacity:0.3;fill:url(#SVGID_00000100349930927348623760000009263986905024896957_);" points="1679.8,229.5 
					1679.8,229.5 1679.9,229.5 1679.9,229.5 1629.1,164 1629.1,164 1578.3,229.5 1578.3,229.5 1679.8,229.5 				"/>
				<polygon class="st9" points="1730.6,426.1 1781.4,491.7 1832.2,426.1 				"/>
				<polygon class="st2" points="1832.2,426.1 1781.4,360.6 1781.4,360.6 1730.6,426.1 1730.6,426.1 1832.2,426.1 				"/>
				<polygon class="st6" points="1781.4,622.7 1832.2,557.2 1730.6,557.2 				"/>
				
					<linearGradient id="SVGID_00000093171438160566001210000010649325543803024829_" gradientUnits="userSpaceOnUse" x1="303.3945" y1="-224.0702" x2="361.5535" y2="-165.9112" gradientTransform="matrix(-1 0 0 -1 2164.6599 420.3809)">
					<stop  offset="0" style="stop-color:#FFFFFF"/>
					<stop  offset="0.2615" style="stop-color:#FDFDFD"/>
					<stop  offset="0.4022" style="stop-color:#F5F5F5"/>
					<stop  offset="0.5141" style="stop-color:#E7E7E7"/>
					<stop  offset="0.6108" style="stop-color:#D4D4D4"/>
					<stop  offset="0.6978" style="stop-color:#BBBBBB"/>
					<stop  offset="0.7779" style="stop-color:#9D9D9C"/>
					<stop  offset="0.8526" style="stop-color:#787877"/>
					<stop  offset="0.923" style="stop-color:#4E4E4D"/>
					<stop  offset="0.9877" style="stop-color:#20201E"/>
					<stop  offset="1" style="stop-color:#161614"/>
				</linearGradient>
				<polygon style="opacity:0.3;fill:url(#SVGID_00000093171438160566001210000010649325543803024829_);" points="1832.2,557.2 
					1832.2,557.2 1781.4,622.7 1781.4,622.8 1883,622.8 1883,622.7 				"/>
				<polygon class="st6" points="1832.2,688.3 1883,622.8 1781.4,622.8 				"/>
				<polygon class="st9" points="1781.4,360.6 1883,360.6 1883,360.6 1883,360.6 1883,360.6 1883,360.6 1832.2,295.1 1832.2,295.1 
					1781.4,360.6 1781.4,360.6 				"/>
				<polygon class="st6" points="1832.2,426.1 1933.7,426.1 1933.7,426.1 1883,360.6 1883,360.6 1883,360.6 1781.4,360.6 
					1832.2,426.1 				"/>
				<polygon class="st9" points="1832.2,426.1 1883,491.7 1933.7,426.1 				"/>
				<polygon class="st11" points="1933.7,295.1 1832.2,295.1 1883,360.6 				"/>
				
					<linearGradient id="SVGID_00000173864171566356748270000010617910241398444206_" gradientUnits="userSpaceOnUse" x1="252.6128" y1="3246.7529" x2="310.772" y2="3304.9124" gradientTransform="matrix(-1 0 0 1 2164.6599 -2988.1433)">
					<stop  offset="0" style="stop-color:#001E30"/>
					<stop  offset="0.1413" style="stop-color:#001E30"/>
					<stop  offset="1" style="stop-color:#001E30"/>
				</linearGradient>
				<polygon style="fill:url(#SVGID_00000173864171566356748270000010617910241398444206_);" points="1933.7,295.1 1933.7,295.1 
					1933.7,295.1 1933.7,295.1 1933.7,295.1 1883,229.5 1883,229.5 1832.2,295.1 1832.2,295.1 1933.7,295.1 				"/>
				<rect x="1883" y="360.6" class="st9" width="0" height="0"/>
				
					<linearGradient id="SVGID_00000026867658167645610840000010631645476573926556_" gradientUnits="userSpaceOnUse" x1="281.6924" y1="3348.7534" x2="281.6924" y2="3346.937" gradientTransform="matrix(-1 0 0 1 2164.6599 -2988.1433)">
					<stop  offset="0" style="stop-color:#001E30"/>
					<stop  offset="0.1413" style="stop-color:#001E30"/>
					<stop  offset="1" style="stop-color:#001E30"/>
				</linearGradient>
				
					<rect x="1883" y="360.6" style="fill:url(#SVGID_00000026867658167645610840000010631645476573926556_);" width="0" height="0"/>
				<rect x="1908.4" y="286.4" class="st11" width="0" height="82.9"/>
				
					<linearGradient id="SVGID_00000006694955179627978440000008625272624788433850_" gradientUnits="userSpaceOnUse" x1="256.3046" y1="3348.7449" x2="256.3046" y2="3217.6875" gradientTransform="matrix(-1 0 0 1 2164.6599 -2988.1433)">
					<stop  offset="0" style="stop-color:#001E30"/>
					<stop  offset="0.1413" style="stop-color:#001E30"/>
					<stop  offset="1" style="stop-color:#001E30"/>
				</linearGradient>
				
					<rect x="1908.4" y="286.4" style="fill:url(#SVGID_00000006694955179627978440000008625272624788433850_);" width="0" height="82.9"/>
				
					<linearGradient id="SVGID_00000023271385077726709960000004896554432616074423_" gradientUnits="userSpaceOnUse" x1="230.9108" y1="3283.2083" x2="230.9108" y2="3283.2083" gradientTransform="matrix(-1 0 0 1 2164.6599 -2988.1433)">
					<stop  offset="0" style="stop-color:#001E30"/>
					<stop  offset="0.1413" style="stop-color:#001E30"/>
					<stop  offset="1" style="stop-color:#001E30"/>
				</linearGradient>
				
					<rect x="1933.7" y="295.1" style="fill:url(#SVGID_00000023271385077726709960000004896554432616074423_);" width="0" height="0"/>
				
					<linearGradient id="SVGID_00000108284268218150652410000011345516031123896482_" gradientUnits="userSpaceOnUse" x1="230.9108" y1="3283.2083" x2="230.9108" y2="3283.2083" gradientTransform="matrix(-1 0 0 1 2164.6599 -2988.1433)">
					<stop  offset="0" style="stop-color:#001E30"/>
					<stop  offset="0.1413" style="stop-color:#001E30"/>
					<stop  offset="1" style="stop-color:#001E30"/>
				</linearGradient>
				
					<rect x="1933.7" y="295.1" style="fill:url(#SVGID_00000108284268218150652410000011345516031123896482_);" width="0" height="0"/>
				
					<linearGradient id="SVGID_00000092454967329131868380000010481147956465249182_" gradientUnits="userSpaceOnUse" x1="230.3491" y1="3282.6484" x2="231.4844" y2="3283.7837" gradientTransform="matrix(-1 0 0 1 2164.6599 -2988.1433)">
					<stop  offset="0" style="stop-color:#001E30"/>
					<stop  offset="0.1413" style="stop-color:#001E30"/>
					<stop  offset="1" style="stop-color:#001E30"/>
				</linearGradient>
				
					<rect x="1933.7" y="295.1" style="fill:url(#SVGID_00000092454967329131868380000010481147956465249182_);" width="0" height="0"/>
				
					<linearGradient id="SVGID_00000081621668907423673810000000286990373878313918_" gradientUnits="userSpaceOnUse" x1="230.9168" y1="3284.3516" x2="230.9168" y2="3282.0811" gradientTransform="matrix(-1 0 0 1 2164.6599 -2988.1433)">
					<stop  offset="0" style="stop-color:#001E30"/>
					<stop  offset="0.1413" style="stop-color:#001E30"/>
					<stop  offset="1" style="stop-color:#001E30"/>
				</linearGradient>
				
					<rect x="1933.7" y="295.1" style="fill:url(#SVGID_00000081621668907423673810000000286990373878313918_);" width="0" height="0"/>
				<polygon class="st9" points="1781.4,229.5 1832.2,164 1730.6,164 				"/>
				<polygon class="st9" points="1933.7,557.2 1933.7,557.2 1883,491.7 1883,491.7 1883,491.7 1883,491.7 1883,491.7 1781.4,491.7 
					1832.2,557.2 1832.2,557.2 				"/>
				<polygon class="st11" points="1883,622.7 1933.7,557.2 1832.2,557.2 				"/>
				<polygon class="st7" points="1781.4,229.5 1730.6,164 1730.6,164 1730.6,164 1730.6,164 1629.1,164 1679.9,229.5 1679.9,229.5 
					1781.4,229.5 1781.4,229.5 1781.4,229.5 1781.4,229.5 1781.4,229.5 				"/>
				<polygon class="st6" points="1679.9,229.5 1679.8,229.5 1679.8,229.5 1730.6,295.1 1781.4,229.5 1679.9,229.5 				"/>
				<polygon class="st11" points="1730.6,557.2 1730.6,557.2 1679.8,622.7 1679.8,622.8 1781.4,622.8 1781.4,622.7 				"/>
				<polygon class="st9" points="1614.9,313.4 1629.1,295.1 1527.5,295.1 1578.3,360.6 				"/>
				<polygon class="st9" points="1578.3,360.6 1578.3,360.6 1629.1,426.1 1679.8,360.6 1679.8,360.6 1679.8,360.6 1679.8,360.6 
					1679.8,360.6 1679.8,360.6 1679.8,360.6 1638.4,307.1 1629.1,295.1 1629.1,295.1 1730.6,295.1 1730.6,295.1 1781.4,360.6 
					1832.2,295.1 1832.2,295.1 1832.2,295.1 1883,229.5 1781.4,229.5 1781.4,229.5 1781.4,229.5 1781.4,229.5 1730.6,295.1 
					1679.8,229.5 1629.1,295.1 1629.1,295.1 1629.1,295.1 1629.1,295.1 1629.1,295.1 1629.1,295.1 1614.9,313.4 				"/>
				<polygon class="st7" points="1679.8,360.6 1679.8,360.6 1629.1,426.1 1629.1,426.1 1730.6,426.1 1730.6,426.1 				"/>
				<polygon class="st9" points="1679.8,229.5 1679.8,229.5 1679.8,229.5 				"/>
				<polygon class="st9" points="1832.2,426.1 1832.2,426.1 1832.2,426.1 				"/>
				<polygon class="st9" points="1781.4,360.6 1781.4,360.6 1781.4,360.6 				"/>
				<polygon class="st9" points="1883,229.5 1883,229.5 1883,229.5 				"/>
				<polygon class="st9" points="1832.2,164 1832.2,164 1832.2,164 				"/>
				<polygon class="st9" points="1933.8,295.1 1933.7,295.1 1933.7,295.1 1933.7,295.1 1933.7,295.1 				"/>
				<polygon class="st9" points="1883,622.8 1883,622.8 1883,622.7 				"/>
				<polygon class="st9" points="1933.7,164 1933.8,164 1933.7,164 				"/>
				<polygon class="st9" points="1623.8,501.7 1623.8,501.7 1641.4,524.4 1659,501.7 				"/>
				<polygon class="st9" points="1683,636.7 1683,636.7 1710.7,672.4 1738.4,636.7 				"/>
				<polygon class="st9" points="1883,360.6 1883,360.6 1883,360.6 1883,360.6 				"/>
				<polygon class="st9" points="1679.8,622.8 1679.8,622.8 1679.8,622.7 				"/>
				<polygon class="st9" points="1832.2,557.2 1832.2,557.2 1832.2,557.2 				"/>
				<polygon class="st9" points="1578.3,229.5 1578.3,229.5 1578.3,229.5 				"/>
				<polygon class="st9" points="1527.5,295.1 1527.5,295.1 1527.5,295.1 				"/>
				<polygon class="st9" points="1832.2,688.3 1832.2,688.3 1832.2,688.3 				"/>
				<polygon class="st9" points="1578.3,360.6 1578.3,360.6 1578.3,360.6 				"/>
				<polygon class="st9" points="1781.4,622.8 1781.4,622.8 1781.4,622.7 				"/>
				<polygon class="st9" points="1629.1,426.1 1629.1,426.1 1629.1,426.1 				"/>
				<polygon class="st9" points="1679.8,491.7 1781.4,491.7 1781.4,491.7 1781.4,491.7 1781.4,491.7 1781.4,491.7 1781.4,491.7 
					1730.6,426.1 1730.6,426.1 1730.6,426.1 1679.8,491.7 1679.8,491.7 1679.8,491.7 1679.8,491.7 				"/>
				<g>
					<path class="st5" d="M1679.8,491.7L1679.8,491.7L1679.8,491.7z"/>
					<polygon class="st9" points="1832.2,557.2 1832.2,557.2 1781.4,491.7 1730.6,557.2 					"/>
					<polygon class="st6" points="1730.6,557.2 1781.4,491.7 1679.8,491.7 					"/>
				</g>
				<polygon class="st19" points="1781.4,229.5 1781.4,229.5 1730.6,295.1 1730.7,295.1 1730.6,295.1 1832.2,295.1 1832.2,295.1 
									"/>
				<polygon class="st19" points="1679.8,229.5 1679.8,229.5 1629.1,295.1 1629.1,295.1 1629.1,295.1 1730.6,295.1 1730.6,295.1 
									"/>
				<polygon class="st19" points="1730.6,557.2 1730.6,557.2 1679.8,622.7 1679.8,622.7 1679.8,622.8 1781.4,622.8 1781.4,622.7 
									"/>
				
					<linearGradient id="SVGID_00000144325594243573143580000003960452337123177639_" gradientUnits="userSpaceOnUse" x1="332.2241" y1="3479.6992" x2="332.2241" y2="3414.1633" gradientTransform="matrix(-1 0 0 1 2164.6599 -2988.1433)">
					<stop  offset="0" style="stop-color:#001E30"/>
					<stop  offset="7.380247e-03" style="stop-color:#092637"/>
					<stop  offset="4.767627e-02" style="stop-color:#374F5D"/>
					<stop  offset="9.308982e-02" style="stop-color:#627580"/>
					<stop  offset="0.1419" style="stop-color:#88969E"/>
					<stop  offset="0.195" style="stop-color:#A8B3B9"/>
					<stop  offset="0.2537" style="stop-color:#C4CBCF"/>
					<stop  offset="0.32" style="stop-color:#DADEE1"/>
					<stop  offset="0.3974" style="stop-color:#EBEDEE"/>
					<stop  offset="0.4931" style="stop-color:#F6F7F8"/>
					<stop  offset="0.6274" style="stop-color:#FDFDFD"/>
					<stop  offset="1" style="stop-color:#FFFFFF"/>
				</linearGradient>
				<polygon style="opacity:0.4;fill:url(#SVGID_00000144325594243573143580000003960452337123177639_);" points="1832.4,426 
					1832.4,426 1781.7,491.5 1781.7,491.5 1781.7,491.6 1883.2,491.6 1883.2,491.5 				"/>
				
					<linearGradient id="SVGID_00000124157368346925829620000007483093989225781902_" gradientUnits="userSpaceOnUse" x1="468.7409" y1="-2.7025" x2="573.9167" y2="72.664" gradientTransform="matrix(-1 0 0 -1 2164.6599 420.3809)">
					<stop  offset="0.3731" style="stop-color:#001E30"/>
					<stop  offset="0.3777" style="stop-color:#092637"/>
					<stop  offset="0.4029" style="stop-color:#374F5D"/>
					<stop  offset="0.4314" style="stop-color:#627580"/>
					<stop  offset="0.462" style="stop-color:#88969E"/>
					<stop  offset="0.4953" style="stop-color:#A8B3B9"/>
					<stop  offset="0.5321" style="stop-color:#C4CBCF"/>
					<stop  offset="0.5737" style="stop-color:#DADEE1"/>
					<stop  offset="0.6222" style="stop-color:#EBEDEE"/>
					<stop  offset="0.6822" style="stop-color:#F6F7F8"/>
					<stop  offset="0.7664" style="stop-color:#FDFDFD"/>
					<stop  offset="1" style="stop-color:#FFFFFF"/>
				</linearGradient>
				<polygon style="opacity:0.5;fill:url(#SVGID_00000124157368346925829620000007483093989225781902_);" points="1578.3,360.6 
					1587.6,372.7 1629.1,426.1 1679.9,360.6 				"/>
				<polygon class="st2" points="1592.5,342.3 1578.3,360.6 1679.8,360.6 1629.1,295.1 				"/>
			</g>
			<polygon class="st6" points="1664.2,498.9 1694.7,459.6 1694.7,459.6 1694.7,459.6 1633.7,459.6 			"/>
		</g>
	</g>
	<polygon class="st2" points="1831.9,295.1 1781.1,229.6 1831.9,229.6 	"/>
</g>
<g>
	<g>
		<defs>
			<rect id="SVGID_00000149380372622876700560000011620022592183079337_" y="516.3" width="272.4" height="245.2"/>
		</defs>
		<clipPath id="SVGID_00000007397608802057295980000002829248082479092900_">
			<use xlink:href="#SVGID_00000149380372622876700560000011620022592183079337_"  style="overflow:visible;"/>
		</clipPath>
		<g style="clip-path:url(#SVGID_00000007397608802057295980000002829248082479092900_);">
			<g>
				
					<linearGradient id="SVGID_00000111877564937789620490000011630266399155019953_" gradientUnits="userSpaceOnUse" x1="602.0704" y1="199.4715" x2="658.8705" y2="240.1731" gradientTransform="matrix(1 0 0 1 -556.0495 492.9368)">
					<stop  offset="0.3731" style="stop-color:#001E30"/>
					<stop  offset="0.3777" style="stop-color:#092637"/>
					<stop  offset="0.4029" style="stop-color:#374F5D"/>
					<stop  offset="0.4314" style="stop-color:#627580"/>
					<stop  offset="0.462" style="stop-color:#88969E"/>
					<stop  offset="0.4953" style="stop-color:#A8B3B9"/>
					<stop  offset="0.5321" style="stop-color:#C4CBCF"/>
					<stop  offset="0.5737" style="stop-color:#DADEE1"/>
					<stop  offset="0.6222" style="stop-color:#EBEDEE"/>
					<stop  offset="0.6822" style="stop-color:#F6F7F8"/>
					<stop  offset="0.7664" style="stop-color:#FDFDFD"/>
					<stop  offset="1" style="stop-color:#FFFFFF"/>
				</linearGradient>
				<polygon style="opacity:0.5;fill:url(#SVGID_00000111877564937789620490000011630266399155019953_);" points="109.5,726.1 
					104.5,719.6 82.1,690.8 54.7,726.1 				"/>
				<polygon class="st2" points="189,698.3 145.8,698.3 145.8,698.3 167.4,726.1 167.4,726.1 189,698.3 				"/>
				<polygon class="st5" points="-0.2,655.4 -55,655.4 -55,655.4 -55,655.4 -55,655.4 -0.2,655.4 -0.2,655.4 27.3,690.7 27.3,690.7 
					-0.2,655.4 				"/>
				<polygon class="st5" points="-27.6,620 -27.6,620 -55,584.6 -55,584.6 -0.2,584.6 -0.2,584.6 -0.2,584.6 54.7,584.6 54.7,584.6 
					54.7,584.6 -0.2,584.6 -0.2,584.6 -0.2,584.6 -55,584.6 -55,584.6 				"/>
				<polygon class="st5" points="-27.6,690.7 -55,655.4 -55,655.4 				"/>
				<polygon class="st5" points="117.2,716.3 137,690.8 137,690.7 137,690.8 				"/>
				<polygon class="st5" points="82.1,761.5 82.1,761.5 82.1,761.5 				"/>
				<polygon class="st5" points="109.5,726.1 104.5,719.6 109.5,726.1 				"/>
				<polygon class="st6" points="27.3,690.8 54.7,726.1 54.7,726.1 82.1,690.8 82.1,690.8 82.1,690.8 82.1,690.7 27.3,690.7 				"/>
				<polygon class="st7" points="82.1,761.5 82.1,761.5 82.1,761.5 137,761.5 109.5,726.2 109.5,726.1 				"/>
				<polygon class="st6" points="-27.6,620 -27.6,620 -0.2,655.4 -0.2,655.4 27.3,620 27.3,620 27.3,620 -27.6,620 				"/>
				
					<linearGradient id="SVGID_00000031183295002404763930000006391275400047075493_" gradientUnits="userSpaceOnUse" x1="649.8805" y1="3120.2349" x2="681.2892" y2="3151.6436" gradientTransform="matrix(1 0 0 -1 -556.0495 3901.4609)">
					<stop  offset="0" style="stop-color:#FFFFFF"/>
					<stop  offset="1" style="stop-color:#161614"/>
				</linearGradient>
				<polygon style="opacity:0.3;fill:url(#SVGID_00000031183295002404763930000006391275400047075493_);" points="82.1,761.5 
					82.1,761.5 82.1,761.5 82.1,761.5 109.5,796.9 109.5,796.9 137,761.5 137,761.5 82.1,761.5 				"/>
				<polygon class="st9" points="54.7,655.4 27.3,620 -0.2,655.4 				"/>
				<polygon class="st2" points="-0.2,655.4 27.3,690.7 27.3,690.7 54.7,655.4 54.7,655.4 -0.2,655.4 				"/>
				<polygon class="st6" points="27.3,549.2 -0.2,584.6 54.7,584.6 				"/>
				
					<linearGradient id="SVGID_00000086674900380617317750000007304851651323002520_" gradientUnits="userSpaceOnUse" x1="540.1908" y1="44.5232" x2="571.5995" y2="75.9319" gradientTransform="matrix(1 0 0 1 -556.0495 492.9368)">
					<stop  offset="0" style="stop-color:#FFFFFF"/>
					<stop  offset="0.2615" style="stop-color:#FDFDFD"/>
					<stop  offset="0.4022" style="stop-color:#F5F5F5"/>
					<stop  offset="0.5141" style="stop-color:#E7E7E7"/>
					<stop  offset="0.6108" style="stop-color:#D4D4D4"/>
					<stop  offset="0.6978" style="stop-color:#BBBBBB"/>
					<stop  offset="0.7779" style="stop-color:#9D9D9C"/>
					<stop  offset="0.8526" style="stop-color:#787877"/>
					<stop  offset="0.923" style="stop-color:#4E4E4D"/>
					<stop  offset="0.9877" style="stop-color:#20201E"/>
					<stop  offset="1" style="stop-color:#161614"/>
				</linearGradient>
				<polygon style="opacity:0.3;fill:url(#SVGID_00000086674900380617317750000007304851651323002520_);" points="-0.2,584.6 
					-0.2,584.6 27.3,549.2 27.3,549.2 -27.6,549.2 -27.6,549.2 				"/>
				<polygon class="st6" points="-0.2,513.8 -27.6,549.2 27.3,549.2 				"/>
				<polygon class="st9" points="27.3,690.7 -27.6,690.7 -27.6,690.7 -27.6,690.8 -27.6,690.8 -27.6,690.8 -0.2,726.1 -0.2,726.1 
					27.3,690.8 27.3,690.7 				"/>
				<polygon class="st6" points="-0.2,655.4 -55,655.4 -55,655.4 -27.6,690.7 -27.6,690.7 -27.6,690.7 27.3,690.7 -0.2,655.4 				
					"/>
				<polygon class="st9" points="-0.2,655.4 -27.6,620 -55,655.4 				"/>
				<polygon class="st11" points="-55,726.1 -0.2,726.1 -27.6,690.8 				"/>
				
					<linearGradient id="SVGID_00000078751544044535307950000011217605440606710956_" gradientUnits="userSpaceOnUse" x1="512.7662" y1="3155.6277" x2="544.175" y2="3187.0366" gradientTransform="matrix(1 0 0 -1 -556.0495 3901.4609)">
					<stop  offset="0" style="stop-color:#001E30"/>
					<stop  offset="0.1413" style="stop-color:#001E30"/>
					<stop  offset="1" style="stop-color:#001E30"/>
				</linearGradient>
				<polygon style="fill:url(#SVGID_00000078751544044535307950000011217605440606710956_);" points="-55,726.1 -55,726.1 
					-55,726.1 -55,726.1 -55,726.1 -27.6,761.5 -27.6,761.5 -0.2,726.1 -0.2,726.1 -55,726.1 				"/>
				<rect x="-27.6" y="690.8" class="st9" width="0" height="0"/>
				
					<linearGradient id="SVGID_00000053507003629969452200000000474385760136823978_" gradientUnits="userSpaceOnUse" x1="528.4706" y1="3210.7129" x2="528.4706" y2="3209.7319" gradientTransform="matrix(1 0 0 -1 -556.0495 3901.4609)">
					<stop  offset="0" style="stop-color:#001E30"/>
					<stop  offset="0.1413" style="stop-color:#001E30"/>
					<stop  offset="1" style="stop-color:#001E30"/>
				</linearGradient>
				
					<rect x="-27.6" y="690.8" style="fill:url(#SVGID_00000053507003629969452200000000474385760136823978_);" width="0" height="0"/>
				<rect x="-41.3" y="686.1" class="st11" width="0" height="44.8"/>
				
					<linearGradient id="SVGID_00000111902183630295594720000016773238357671695280_" gradientUnits="userSpaceOnUse" x1="514.7599" y1="3210.7085" x2="514.7599" y2="3139.9309" gradientTransform="matrix(1 0 0 -1 -556.0495 3901.4609)">
					<stop  offset="0" style="stop-color:#001E30"/>
					<stop  offset="0.1413" style="stop-color:#001E30"/>
					<stop  offset="1" style="stop-color:#001E30"/>
				</linearGradient>
				
					<rect x="-41.3" y="686.1" style="fill:url(#SVGID_00000111902183630295594720000016773238357671695280_);" width="0" height="44.8"/>
				
					<linearGradient id="SVGID_00000103943980703276428270000003996761978079977873_" gradientUnits="userSpaceOnUse" x1="501.0461" y1="3175.3154" x2="501.0461" y2="3175.3154" gradientTransform="matrix(1 0 0 -1 -556.0495 3901.4609)">
					<stop  offset="0" style="stop-color:#001E30"/>
					<stop  offset="0.1413" style="stop-color:#001E30"/>
					<stop  offset="1" style="stop-color:#001E30"/>
				</linearGradient>
				<rect x="-55" y="726.1" style="fill:url(#SVGID_00000103943980703276428270000003996761978079977873_);" width="0" height="0"/>
				
					<linearGradient id="SVGID_00000178169541527918406880000018430265650705241271_" gradientUnits="userSpaceOnUse" x1="501.0461" y1="3175.3154" x2="501.0461" y2="3175.3154" gradientTransform="matrix(1 0 0 -1 -556.0495 3901.4609)">
					<stop  offset="0" style="stop-color:#001E30"/>
					<stop  offset="0.1413" style="stop-color:#001E30"/>
					<stop  offset="1" style="stop-color:#001E30"/>
				</linearGradient>
				<rect x="-55" y="726.1" style="fill:url(#SVGID_00000178169541527918406880000018430265650705241271_);" width="0" height="0"/>
				
					<linearGradient id="SVGID_00000131354169189456213550000004326089920285014438_" gradientUnits="userSpaceOnUse" x1="500.7427" y1="3175.0129" x2="501.3558" y2="3175.626" gradientTransform="matrix(1 0 0 -1 -556.0495 3901.4609)">
					<stop  offset="0" style="stop-color:#001E30"/>
					<stop  offset="0.1413" style="stop-color:#001E30"/>
					<stop  offset="1" style="stop-color:#001E30"/>
				</linearGradient>
				<rect x="-55" y="726.1" style="fill:url(#SVGID_00000131354169189456213550000004326089920285014438_);" width="0" height="0"/>
				
					<linearGradient id="SVGID_00000023282968478759789510000000967205322491916457_" gradientUnits="userSpaceOnUse" x1="501.0493" y1="3175.9329" x2="501.0493" y2="3174.7065" gradientTransform="matrix(1 0 0 -1 -556.0495 3901.4609)">
					<stop  offset="0" style="stop-color:#001E30"/>
					<stop  offset="0.1413" style="stop-color:#001E30"/>
					<stop  offset="1" style="stop-color:#001E30"/>
				</linearGradient>
				<rect x="-55" y="726.1" style="fill:url(#SVGID_00000023282968478759789510000000967205322491916457_);" width="0" height="0"/>
				<polygon class="st9" points="27.3,761.5 -0.2,796.9 54.7,796.9 				"/>
				<polygon class="st9" points="-55,584.6 -55,584.6 -27.6,620 -27.6,620 -27.6,620 -27.6,620 -27.6,620 27.3,620 -0.2,584.6 
					-0.2,584.6 				"/>
				<polygon class="st11" points="-27.6,549.2 -55,584.6 -0.2,584.6 				"/>
				<polygon class="st7" points="27.3,761.5 54.7,796.9 54.7,796.9 54.7,796.9 54.7,796.9 109.5,796.9 82.1,761.5 82.1,761.5 
					27.3,761.5 27.3,761.5 27.3,761.5 27.3,761.5 27.3,761.5 				"/>
				<polygon class="st6" points="82.1,761.5 82.1,761.5 82.1,761.5 54.7,726.1 27.3,761.5 82.1,761.5 				"/>
				<polygon class="st11" points="54.7,584.6 54.7,584.6 82.1,549.2 82.1,549.2 27.3,549.2 27.3,549.2 				"/>
				<polygon class="st9" points="117.2,716.3 109.5,726.1 164.4,726.1 137,690.8 				"/>
				<polygon class="st9" points="137,690.8 137,690.7 109.5,655.4 82.1,690.7 82.1,690.8 82.1,690.7 82.1,690.7 82.1,690.8 
					82.1,690.8 82.1,690.8 104.5,719.6 109.5,726.1 109.5,726.1 54.7,726.1 54.7,726.1 27.3,690.8 -0.2,726.1 -0.2,726.1 
					-0.2,726.1 -27.6,761.5 27.3,761.5 27.3,761.5 27.3,761.5 27.3,761.5 54.7,726.1 82.1,761.5 109.5,726.1 109.5,726.2 
					109.5,726.1 109.5,726.1 109.5,726.1 109.5,726.1 117.2,716.3 				"/>
				<polygon class="st7" points="82.1,690.7 82.1,690.7 109.5,655.4 109.5,655.4 54.7,655.4 54.7,655.4 				"/>
				<polygon class="st9" points="82.1,761.5 82.1,761.5 82.1,761.5 				"/>
				<polygon class="st9" points="-0.2,655.4 -0.2,655.4 -0.2,655.4 				"/>
				<polygon class="st9" points="27.3,690.7 27.3,690.8 27.3,690.7 				"/>
				<polygon class="st9" points="-27.6,761.5 -27.6,761.5 -27.6,761.5 				"/>
				<polygon class="st9" points="-0.2,796.9 -0.2,796.9 -0.2,796.9 				"/>
				<polygon class="st9" points="-55,726.1 -55,726.1 -55,726.1 -55,726.1 -55,726.1 				"/>
				<polygon class="st9" points="-27.6,549.2 -27.6,549.2 -27.6,549.2 				"/>
				<polygon class="st9" points="-55,796.9 -55,796.9 -55,796.9 				"/>
				<polygon class="st9" points="112.4,614.6 112.4,614.6 102.9,602.3 93.4,614.6 				"/>
				<polygon class="st9" points="80.4,541.7 80.4,541.7 65.5,522.4 50.5,541.7 				"/>
				<rect x="-27.6" y="690.7" class="st9" width="0" height="0"/>
				<polygon class="st9" points="82.1,549.2 82.1,549.2 82.1,549.2 				"/>
				<polygon class="st9" points="-0.2,584.6 -0.2,584.6 -0.2,584.6 				"/>
				<polygon class="st9" points="137,761.5 137,761.5 137,761.5 				"/>
				<polygon class="st9" points="164.4,726.1 164.4,726.1 164.4,726.1 				"/>
				<polygon class="st9" points="-0.2,513.8 -0.2,513.8 -0.2,513.8 				"/>
				<polygon class="st9" points="137,690.7 137,690.7 137,690.8 				"/>
				<polygon class="st9" points="27.3,549.2 27.3,549.2 27.3,549.2 				"/>
				<polygon class="st9" points="109.5,655.4 109.5,655.4 109.5,655.4 				"/>
				<polygon class="st9" points="82.1,620 27.3,620 27.3,620 27.3,620 27.3,620 27.3,620 27.3,620 54.7,655.4 54.7,655.4 
					54.7,655.4 82.1,620 82.1,620 82.1,620 82.1,620 				"/>
				<g>
					<path class="st5" d="M82.1,620L82.1,620L82.1,620z"/>
					<polygon class="st9" points="-0.2,584.6 -0.2,584.6 27.3,620 54.7,584.6 					"/>
					<polygon class="st6" points="54.7,584.6 27.3,620 82.1,620 					"/>
				</g>
				<polygon class="st19" points="27.3,761.5 27.3,761.5 54.7,726.2 54.7,726.1 54.7,726.1 -0.2,726.1 -0.2,726.1 				"/>
				<polygon class="st19" points="82.1,761.5 82.1,761.5 109.5,726.2 109.5,726.1 109.5,726.1 54.7,726.1 54.7,726.1 				"/>
				<polygon class="st19" points="54.7,584.6 54.7,584.6 82.1,549.2 82.1,549.2 82.1,549.2 27.3,549.2 27.3,549.2 				"/>
				
					<linearGradient id="SVGID_00000146499158486542537210000013658812750099706265_" gradientUnits="userSpaceOnUse" x1="555.7602" y1="3281.4302" x2="555.7602" y2="3246.0374" gradientTransform="matrix(1 0 0 -1 -556.0495 3901.4609)">
					<stop  offset="0" style="stop-color:#001E30"/>
					<stop  offset="7.380247e-03" style="stop-color:#092637"/>
					<stop  offset="4.767627e-02" style="stop-color:#374F5D"/>
					<stop  offset="9.308982e-02" style="stop-color:#627580"/>
					<stop  offset="0.1419" style="stop-color:#88969E"/>
					<stop  offset="0.195" style="stop-color:#A8B3B9"/>
					<stop  offset="0.2537" style="stop-color:#C4CBCF"/>
					<stop  offset="0.32" style="stop-color:#DADEE1"/>
					<stop  offset="0.3974" style="stop-color:#EBEDEE"/>
					<stop  offset="0.4931" style="stop-color:#F6F7F8"/>
					<stop  offset="0.6274" style="stop-color:#FDFDFD"/>
					<stop  offset="1" style="stop-color:#FFFFFF"/>
				</linearGradient>
				<polygon style="opacity:0.4;fill:url(#SVGID_00000146499158486542537210000013658812750099706265_);" points="-0.3,655.4 
					-0.3,655.4 27.1,620 27.1,620 27.1,620 -27.7,620 -27.7,620 				"/>
				
					<linearGradient id="SVGID_00000112600055155021928460000004227460607382758570_" gradientUnits="userSpaceOnUse" x1="629.486" y1="164.0726" x2="686.2862" y2="204.7743" gradientTransform="matrix(1 0 0 1 -556.0495 492.9368)">
					<stop  offset="0.3731" style="stop-color:#001E30"/>
					<stop  offset="0.3777" style="stop-color:#092637"/>
					<stop  offset="0.4029" style="stop-color:#374F5D"/>
					<stop  offset="0.4314" style="stop-color:#627580"/>
					<stop  offset="0.462" style="stop-color:#88969E"/>
					<stop  offset="0.4953" style="stop-color:#A8B3B9"/>
					<stop  offset="0.5321" style="stop-color:#C4CBCF"/>
					<stop  offset="0.5737" style="stop-color:#DADEE1"/>
					<stop  offset="0.6222" style="stop-color:#EBEDEE"/>
					<stop  offset="0.6822" style="stop-color:#F6F7F8"/>
					<stop  offset="0.7664" style="stop-color:#FDFDFD"/>
					<stop  offset="1" style="stop-color:#FFFFFF"/>
				</linearGradient>
				<polygon style="opacity:0.5;fill:url(#SVGID_00000112600055155021928460000004227460607382758570_);" points="137,690.7 
					131.9,684.2 109.5,655.4 82.1,690.7 				"/>
				<polygon class="st2" points="129.3,700.6 137,690.8 82.1,690.8 109.5,726.1 				"/>
			</g>
			<polygon class="st6" points="90.6,616.1 74.1,637.3 74.1,637.3 74.1,637.3 107,637.3 			"/>
		</g>
	</g>
	<polygon class="st2" points="0,726.1 27.4,761.5 0,761.5 	"/>
</g>
</svg>
